PathFileType	4	(X/Y/Z)	C:/Users/opensim2020/Desktop/walking_exp_matlab/subject02_walking15_straight_01.trc																																																																																																																												
DataRate	CameraRate	NumFrames	NumMarkers	Units	OrigDataRate	OrigDataStartFrame	OrigNumFrames																																																																																																																								
100	100	8	42	mm	100	408	165																																																																																																																								
Frame#	Time	LFHD			RFHD			LBHD			RBHD			C7			T10			CLAV			STRN			RBAK			LSHO			LUPA			LELB			LFRM			LWRA			LWRB			LFIN			RSHO			RUPA			RELB			RFRM			RWRA			RWRB			RFIN			LASI			RASI			LPSI			RPSI			LTHI			LKNE			LTIB			LANK			LHEE			LTOE			RTHI			RKNE			RTIB			RANK			RHEE			RTOE			*39			*40			*41		
		X1	Y1	Z1	X2	Y2	Z2	X3	Y3	Z3	X4	Y4	Z4	X5	Y5	Z5	X6	Y6	Z6	X7	Y7	Z7	X8	Y8	Z8	X9	Y9	Z9	X10	Y10	Z10	X11	Y11	Z11	X12	Y12	Z12	X13	Y13	Z13	X14	Y14	Z14	X15	Y15	Z15	X16	Y16	Z16	X17	Y17	Z17	X18	Y18	Z18	X19	Y19	Z19	X20	Y20	Z20	X21	Y21	Z21	X22	Y22	Z22	X23	Y23	Z23	X24	Y24	Z24	X25	Y25	Z25	X26	Y26	Z26	X27	Y27	Z27	X28	Y28	Z28	X29	Y29	Z29	X30	Y30	Z30	X31	Y31	Z31	X32	Y32	Z32	X33	Y33	Z33	X34	Y34	Z34	X35	Y35	Z35	X36	Y36	Z36	X37	Y37	Z37	X38	Y38	Z38	X39	Y39	Z39	X40	Y40	Z40	X41	Y41	Z41	X42	Y42	Z42
																																																																																																																															
21	0.2	-1013.86719	1721.78467	1516.60144	-1019.67609	1708.48682	1661.31921	-1150.93665	1660.15417	1508.1687	-1168.4635	1645.43945	1650.12341	-1219.93982	1523.125	1589.94727	-1284.53333	1248.67664	1593.17236	-1086.06799	1450.57214	1567.89648	-1038.49194	1277.83276	1573.55017	-1280.99609	1349.90173	1659.30676	-1168.89844	1495.43201	1406.31262	-1228.35254	1313.74146	1310.79028	-1265.10828	1186.93738	1275.13696	-1297.88293	1067.83679	1231.87964	-1279.57727	931.78278	1209.25598	-1330.04602	954.42755	1198.86841	-1334.66809	895.77594	1170.43787	-1134.08252	1486.59656	1768.1626	-1140.25342	1300.37268	1865.77026	-1106.19666	1158.33374	1889.65002	-1055.55823	1050.98608	1911.75696	-986.58044	934.61365	1896.87451	-1029.14819	924.2406	1931.55908	-978.7738	872.63715	1937.36218	-1071.30872	987.97382	1442.3479	-1073.28271	961.24084	1695.58606	-1278.27539	1034.36462	1520.96948	-1281.7439	1032.05627	1635.87402	-1061.67578	689.6626	1365.63623	-1025.80261	493.11557	1401.00537	-1069.86865	306.1774	1427.69995	-1046.55969	86.09521	1469.15295	-1060.83606	61.16215	1531.276	-905.59082	55.20326	1416.34766	-1196.0968	664.90063	1750.67126	-1236.07507	457.38586	1710.39331	-1304.2168	281.91846	1720.17566	-1343.93115	89.85282	1685.83936	-1382.83167	33.95657	1633.42615	-1193.63721	30.89136	1696.07947	-1110.54675	1799.54993	1603.31836	2845.90063	1034.33264	-3357.46753	NaN	NaN	NaN
22	0.21	-1005.10754	1721.40955	1518.50757	-1009.54333	1706.82117	1662.31226	-1141.19092	1658.39355	1509.72046	-1158.42688	1643.57886	1651.71228	-1209.5719	1521.36279	1591.4342	-1274.58508	1247.27722	1594.43152	-1075.60339	1448.60034	1569.42163	-1028.94116	1275.56238	1574.94629	-1270.83374	1348.18103	1660.52026	-1158.53503	1493.57556	1407.87659	-1221.05896	1313.21301	1312.922	-1260.96863	1187.59399	1277.20679	-1297.63867	1070.18726	1233.62134	-1283.80737	933.14063	1210.13916	-1333.08057	958.39502	1200.14502	-1340.26575	899.70673	1171.27478	-1123.86523	1485.13208	1769.63281	-1128.92151	1298.91467	1867.13013	-1093.04248	1157.43298	1891.59888	-1040.09045	1050.38452	1913.42041	-969.1358	935.86462	1898.00854	-1011.44983	924.49176	1932.64355	-959.8938	873.8562	1938.26697	-1061.59009	985.67853	1443.66772	-1063.82349	959.58636	1697.31653	-1268.59497	1032.7135	1522.16956	-1272.45837	1030.52661	1636.89001	-1052.04822	687.22394	1367.2854	-1014.56195	490.87357	1404.75476	-1050.0387	301.92108	1431.33801	-1015.44739	82.39712	1470.3103	-1027.97424	56.62763	1532.43567	-873.67078	57.83924	1416.26575	-1189.35864	663.7641	1751.58179	-1231.81653	456.70633	1710.83374	-1301.78467	281.99185	1720.26746	-1343.40747	90.44524	1685.53394	-1382.54358	34.7273	1632.87573	-1193.3999	30.88656	1696.25696	-1101.41003	1798.13733	1605.03992	2845.24707	1034.2439	-3360.32861	NaN	NaN	NaN
23	0.22	-995.39948	1719.73145	1519.51453	-999.91418	1705.68701	1663.78088	-1131.43115	1656.43933	1511.16626	-1148.35242	1641.58777	1653.18689	-1199.12415	1519.47668	1592.81848	-1264.40857	1245.65259	1595.54395	-1065.09131	1446.50354	1570.74658	-1018.24005	1273.45776	1576.82031	-1260.83142	1346.91772	1662.05225	-1148.17126	1491.72119	1409.3479	-1213.73755	1312.13562	1314.90466	-1256.52881	1188.19885	1279.30725	-1296.80261	1072.08789	1235.46033	-1287.27563	934.78174	1211.41516	-1335.85144	961.37506	1201.51294	-1344.97302	903.30945	1172.57141	-1113.3252	1483.5033	1770.98828	-1117.67151	1297.31152	1868.25586	-1079.84143	1156.20081	1893.22388	-1024.96899	1050.11438	1914.76013	-951.89734	937.09637	1899	-993.72162	924.54608	1933.44043	-941.36755	875.20746	1938.9834	-1051.92041	983.34467	1444.92615	-1054.38757	957.98499	1698.94922	-1258.78845	1030.82166	1523.16272	-1263.06006	1028.81506	1637.72351	-1043.21948	683.86847	1370.05933	-1003.27661	488.64459	1408.56897	-1030.74573	298.35458	1434.54175	-985.48785	79.75005	1471.20068	-996.58978	53.58131	1533.38647	-842.75311	61.28312	1416.00659	-1182.55322	662.7226	1752.62036	-1227.4137	456.10318	1711.23608	-1299.48096	282.26141	1720.53333	-1342.60083	90.79654	1685.09192	-1382.44092	35.80572	1632.38281	-1193.20361	30.83082	1696.39307	-1091.81067	1796.24463	1606.27698	2845.98853	1034.32214	-3357.1604	NaN	NaN	NaN
24	0.23	-985.91028	1718.31409	1520.72668	-990.0144	1704.17737	1664.93555	-1121.46997	1654.35242	1512.51343	-1138.09863	1639.46191	1654.48706	-1188.84937	1517.66663	1594.24854	-1254.13818	1243.87878	1596.55408	-1054.4939	1444.24658	1571.85291	-1008.06104	1271.13867	1578.09277	-1250.30029	1344.87402	1663.04529	-1137.73657	1489.7594	1410.66821	-1207.10522	1312.11157	1316.5116	-1252.29395	1188.79907	1281.24463	-1295.99377	1074.31531	1237.36658	-1290.18469	936.34424	1212.65271	-1337.85828	964.34869	1203.34583	-1349.04578	906.87738	1174.36938	-1103.13184	1481.91479	1772.38086	-1106.52527	1295.55627	1869.27136	-1066.94202	1154.8092	1894.94958	-1009.8689	1049.42944	1915.96497	-934.6217	938.07294	1899.6427	-976.35608	924.67188	1934.16187	-923.04114	876.50323	1939.77563	-1042.02747	980.80878	1446.02295	-1044.92273	956.12256	1700.30688	-1249.02905	1029.01404	1524.20056	-1253.51099	1026.89807	1638.43982	-1034.94946	680.72168	1372.1499	-991.89935	486.51785	1412.30933	-1011.48053	294.78391	1437.03442	-956.58502	77.97005	1471.77612	-966.16571	51.08644	1533.90088	-813.20959	64.94462	1415.49158	-1175.58508	661.50677	1753.63782	-1222.94836	455.50012	1711.95728	-1296.74902	282.29565	1720.61865	-1341.85474	91.33413	1684.86609	-1381.85266	36.35505	1631.81958	-1192.99939	30.70186	1696.55945	-1082.25842	1794.30847	1607.51416	2845.82202	1034.4325	-3357.21387	NaN	NaN	NaN
25	0.24	-976.21265	1716.73792	1521.63354	-979.82336	1702.54224	1665.76709	-1111.54016	1652.2876	1513.68591	-1127.79871	1637.2561	1655.70374	-1178.08081	1515.41675	1595.33081	-1243.71057	1242.04858	1597.46814	-1044.05591	1442.07751	1572.68018	-998.23676	1268.59106	1578.82471	-1240.198	1343.29883	1664.22949	-1127.25146	1487.69714	1411.79224	-1199.71204	1311.30798	1318.16064	-1247.30554	1189.14111	1283.30566	-1294.26685	1076.0437	1239.45288	-1292.24207	937.99805	1214.20203	-1339.18628	967.26923	1205.3656	-1351.92358	909.95599	1176.59766	-1092.22949	1479.63916	1773.12622	-1095.38623	1293.54639	1870.14771	-1054.12793	1153.33533	1896.32788	-995.09357	1048.79492	1917.14038	-917.61792	939.17609	1900.35303	-959.11511	924.64673	1934.56702	-904.51563	877.68225	1939.94177	-1032.14038	978.19257	1446.92175	-1035.08386	954.2406	1701.65649	-1238.92871	1026.89502	1524.99854	-1243.89697	1024.88245	1639.05359	-1026.73669	676.79291	1374.28589	-980.56805	484.43069	1415.87402	-992.65625	291.81012	1439.19592	-928.97955	76.88287	1472.10571	-937.26917	49.36591	1534.14197	-784.8327	69.135	1415.42664	-1168.35181	660.28821	1754.57031	-1218.13977	454.90244	1712.36719	-1294.1073	282.54294	1720.81323	-1341.24756	92.02469	1684.67957	-1381.61304	37.5048	1631.23767	-1192.79724	30.6391	1696.77429	-1072.61755	1792.36292	1608.66638	2845.9314	1034.45215	-3357.35547	NaN	NaN	NaN
26	0.25	-966.30225	1715.14343	1522.49292	-969.97333	1701.17188	1666.80762	-1101.46533	1650.12048	1514.76245	-1117.45203	1635.047	1656.81665	-1167.38538	1513.31091	1596.38379	-1233.2312	1240.13269	1598.23108	-1032.96191	1439.84668	1573.69263	-987.69183	1266.34875	1579.63342	-1229.33594	1340.98145	1664.77197	-1116.86023	1485.69934	1412.79883	-1192.30493	1310.50305	1319.83984	-1242.44189	1189.50391	1285.23108	-1292.25818	1077.56311	1241.62085	-1293.32568	939.53113	1216.04871	-1339.71399	969.98639	1207.70874	-1354.25525	912.77802	1179.03772	-1081.48962	1477.75952	1774.07495	-1084.20459	1291.57532	1870.79822	-1041.52271	1151.62036	1897.72571	-980.44745	1048.15601	1917.92627	-900.96783	940.19836	1900.62988	-942.00598	924.46118	1934.70605	-886.67206	878.8938	1940.06873	-1022.05011	975.54541	1447.83875	-1025.25769	952.21674	1702.76733	-1228.68286	1024.703	1525.67358	-1234.15027	1022.78119	1639.56421	-1019.06482	673.21814	1376.17603	-969.34949	482.20291	1419.22144	-974.2356	289.23663	1441.21814	-902.88068	76.61058	1472.57507	-910.09827	48.18773	1534.33801	-757.98175	73.31279	1415.89856	-1160.99841	659.12036	1755.56177	-1213.3833	454.44891	1712.95996	-1291.57971	283.0748	1721.10254	-1340.53467	92.77641	1684.37268	-1381.14172	38.50645	1630.74072	-1192.6571	30.67728	1696.9729	-1062.90784	1790.39038	1609.70776	2845.96948	1034.45239	-3357.51685	NaN	NaN	NaN
27	0.26	-956.38586	1713.54919	1523.20471	-959.51794	1699.15857	1667.48474	-1091.29382	1648.05493	1515.69336	-1106.92419	1632.81458	1657.7749	-1156.63379	1511.16333	1597.28027	-1222.60547	1238.21277	1598.93323	-1022.14288	1437.66052	1574.20715	-977.03772	1264.03723	1580.29688	-1218.81555	1339.20483	1665.54346	-1106.45313	1483.65564	1413.67554	-1185.20154	1310.12292	1321.11975	-1237.51904	1189.86023	1287.0498	-1289.61096	1078.92615	1243.79871	-1292.72205	941.02588	1217.71179	-1339.49097	972.29694	1210.14673	-1355.87695	915.48102	1181.93872	-1070.4209	1475.39209	1774.78931	-1073.00647	1289.31396	1871.39209	-1028.98645	1149.62744	1898.8645	-966.28772	1047.35828	1918.84729	-884.33179	941.11292	1900.96655	-925.4054	924.42462	1934.76233	-868.8761	880.01398	1940.00378	-1011.83997	972.89941	1448.50842	-1015.24219	950.16705	1703.9906	-1218.29211	1022.41235	1526.33105	-1224.31348	1020.66461	1640.06592	-1010.71045	670.21448	1378.26587	-958.28455	479.99561	1422.23633	-956.64447	286.92538	1443.19507	-877.99255	76.16252	1472.82068	-884.71002	47.50039	1534.83789	-732.44879	76.9771	1417.27136	-1153.42407	657.95209	1756.53528	-1208.52783	453.87146	1713.52844	-1288.62024	283.26288	1721.1145	-1339.80042	93.68289	1684.13574	-1380.78113	40.0023	1630.08423	-1192.46069	30.53971	1697.1521	-1053.15295	1788.40173	1610.67151	2845.27588	1034.44092	-3360.32275	NaN	NaN	NaN
28	0.27	-946.08197	1711.63367	1523.78601	-949.46497	1697.85376	1668.21179	-1081.01917	1646.03406	1516.50269	-1096.41724	1630.63464	1658.58936	-1145.78882	1509.04126	1598.01318	-1211.83752	1236.32544	1599.55347	-1010.9809	1435.48596	1574.69543	-966.39331	1261.79016	1580.56738	-1208.07471	1337.03015	1665.84839	-1096.04419	1481.63892	1414.35449	-1177.19067	1309.44202	1322.60901	-1232.55139	1190.32239	1288.80981	-1285.92175	1079.92529	1246.36816	-1292.40515	942.03662	1219.78809	-1338.4364	974.53754	1212.93567	-1356.71143	918.16833	1185.10901	-1059.43579	1473.18945	1775.40613	-1061.72766	1287.04761	1871.89368	-1016.67767	1147.69849	1899.91528	-951.88013	1046.22644	1919.31128	-867.68555	941.82294	1900.33923	-908.55701	924.05389	1934.36194	-851.52972	881.0177	1939.69019	-1001.33331	970.32697	1449.12842	-1004.94769	948.06195	1705.09839	-1207.77295	1020.17566	1527.00391	-1214.14734	1018.46295	1640.52612	-1001.73639	667.57074	1380.14526	-947.22516	477.73804	1424.9834	-940.01282	284.89209	1445.21301	-854.81293	75.81446	1473.96997	-861.00903	46.9287	1535.70532	-708.65833	80.26479	1419.49548	-1145.95618	656.92712	1757.61108	-1203.59827	453.59744	1714.22729	-1285.80811	283.85959	1721.27393	-1338.95862	94.79343	1683.96423	-1380.45178	41.995	1629.66797	-1192.28455	30.70437	1697.51379	-1043.23438	1786.41748	1611.50598	2845.27783	1034.37048	-3360.45386	NaN	NaN	NaN
